<svg width="416" height="63" viewBox="0 0 416 63" fill="none" xmlns="http://www.w3.org/2000/svg">
<path d="M285.2 20.8999C284.8 18.5999 284.5 16.5999 284 14.6999C281.8 6.09993 272.9 2.39993 265.2 6.89993C259.6 10.1999 259 16.1999 264 20.3999C268.1 23.7999 273.2 25.5999 277.9 28.0999C281.7 30.0999 285.6 31.9999 288.8 34.9999C294.1 39.9999 294.5 45.4999 290.2 51.3999C288.1 54.1999 285.2 56.3999 281.9 57.4999C274.4 60.1999 266.9 59.6999 259.5 56.7999C255.6 55.3999 253 51.6999 253.2 47.4999C253.2 43.3999 255.7 40.5999 261 38.6999C261.3 41.6999 260.2 44.4999 260.9 47.4999C262.2 52.7999 265.8 56.3999 271 56.9999C277 57.6999 282.8 54.9999 285.1 50.5999C287.1 46.7999 285.6 43.8999 283 41.1999C279.5 37.6999 274.9 36.0999 270.5 34.1999C266.6 32.3999 262.6 30.7999 259.2 28.0999C250.5 21.1999 252.2 8.99993 262.5 4.99993C269.8 2.09993 277.1 2.49993 284.4 5.29993C287.8 6.59993 290.5 9.09993 290.8 12.8999C291.1 16.6999 288.6 18.8999 285.2 20.8999Z" fill="#FFCC00"/>
<path d="M165.5 49.9001C166.2 51.2001 166.1 51.8001 165.5 52.2001C150.8 63.7001 121.7 62.2001 114.1 38.2001C108.8 21.6001 121.9 4.10012 139.6 3.10012C147.6 2.70012 155.5 3.70012 162.6 7.90012C165.1 9.40012 166.6 11.2001 166.2 14.3001C165.8 17.4001 163.6 18.8001 161 19.7001C159.4 20.3001 158.2 20.6001 157.7 17.8001C156.7 11.4001 152.6 7.10012 146.3 5.40012C140 3.70012 134.5 5.80012 130 10.4001C118.7 22.2001 120 43.0001 132.7 53.2001C139.4 58.6001 151.3 58.4001 160.9 52.9001C162.4 52.0001 163.9 50.9001 165.5 49.9001Z" fill="#FFCC00"/>
<path d="M332.3 58.5H323.9C328 55.9 328 52.6 328 49C327.9 36.5 327.9 24 328 11.6C328 8.6 327.7 6 323.7 4.3C330.7 3.1 335.3 3.5 339.4 9.4C347.4 20.8 356.5 31.5 365.1 42.5C367.5 35.5 366.2 7.4 363.2 4.2C365.9 3.6 368.6 3.6 371.3 4.2C368.3 6.1 367.8 8.5 367.8 11.5C367.9 25.5 367.9 39.5 367.9 53.4V58.2L366.6 58.9L330 11.6C329 15.6 329.5 19 329.4 22.4C329.3 31.9 329.4 41.4 329.4 50.9C329.4 53.8 329.7 56.5 332.3 58.5Z" fill="#FFCC00"/>
<path d="M415.6 49.0998C415.9 58.5998 415.9 58.5998 407.7 58.5998H379.7C383.6 55.7998 383.9 52.6998 383.8 49.1998C383.7 36.8998 383.7 24.5998 383.8 12.2998C383.8 9.1998 383.5 6.3998 380.6 3.7998H407.1C415.8 3.7998 415.8 3.7998 415.7 13.3998C413.5 8.5998 411.1 5.2998 406.1 5.3998C401.8 5.4998 397.4 5.3998 393.1 5.4998C391.4 5.5998 391.9 7.19981 391.9 8.29981C391.8 12.7998 391.8 17.2998 391.9 21.7998C391.9 22.7998 391.5 23.9998 393.3 24.4998C399.6 26.3998 405.1 23.5998 407.9 15.7998V33.9998C404.6 26.6998 401.4 25.0998 394 25.9998C392.1 26.1998 391.9 26.9998 391.9 28.4998C391.9 37.1998 392 45.7998 391.9 54.4998C391.9 56.4998 392.7 56.9998 394.6 56.9998C398.6 56.8998 402.6 57.0998 406.6 56.8998C410.8 56.7998 412.6 55.1998 415.6 49.0998Z" fill="#FFCC00"/>
<path d="M213.7 3.7002C215.7 3.7002 217.6 3.7002 219.6 3.7002C220.2 3.7002 220.8 3.8002 222.5 4.0002C218.7 6.0002 218.1 8.8002 218.1 12.0002C218.2 20.8002 218.2 29.6002 218.1 38.5002C218.1 49.8002 208.9 59.0002 197.6 59.2002C185.8 59.4002 176.3 50.7002 176 39.1002C175.7 29.8002 175.8 20.5002 175.9 11.1002C175.9 8.2002 175.3 5.9002 171.4 4.1002H188.5C184.3 6.1002 184 9.1002 184.1 12.3002C184.4 22.1002 183.4 32.0002 184.6 41.7002C185.8 51.4002 190.7 56.9002 197.8 57.2002C205.8 57.5002 213.7 51.2002 216 42.9002C217.1 38.8002 216.8 34.6002 216.8 30.5002C216.8 24.2002 216.7 17.9002 216.8 11.5002C216.9 8.5002 216.4 5.9002 213.7 3.7002Z" fill="#FFCC00"/>
<path d="M230.4 3.8999H246C241.7 6.2999 242 9.9999 242 13.6999C242.1 25.9999 242.1 38.2999 242 50.5999C242 53.7999 242.4 56.3999 246.9 58.3999H230.5C233.4 56.5999 233.6 53.9999 233.5 51.1999C233.5 37.8999 233.5 24.5999 233.5 11.2999C233.5 8.3999 233.3 5.6999 230.4 3.8999Z" fill="#FFCC00"/>
<path d="M316.1 4C312.4 6.2 311.9 8.5 312 11.3C312.1 24.6 312.1 37.9 312 51.2C312 54.1 312.5 56.5 316.7 58.2H299.3C303.6 56.4 303.6 53.5 303.6 50.5C303.6 37.5 303.6 24.5 303.6 11.6C303.6 8.7 303.4 6 299.5 4H316.1Z" fill="#FFCC00"/>
<path d="M9.7998 24.7001C9.7998 16.9001 9.7998 10.1001 9.7998 3.30011C9.7998 1.60011 9.5998 0.000108339 12.1998 0.100108C14.7998 0.200108 14.0998 1.90011 14.0998 3.30011C14.0998 10.1001 14.0998 16.9001 14.0998 24.2001C17.9998 22.6001 18.9998 19.7001 18.9998 16.3001C19.0998 11.8001 19.0998 7.30011 18.9998 2.80011C18.9998 1.00011 19.2998 0.000108339 21.3998 0.100108C23.4998 0.200108 23.9998 1.00011 23.8998 2.80011C23.5998 8.10011 24.2998 13.4001 23.2998 18.7001C22.4998 23.1001 20.3998 26.5001 16.4998 28.5001C14.4998 29.5001 14.0998 30.6001 14.0998 32.6001C14.1998 41.2001 14.1998 49.9001 14.0998 58.6001C14.0998 60.0001 15.0998 62.1001 12.1998 62.2001C9.0998 62.3001 9.8998 60.1001 9.8998 58.4001C9.7998 50.1001 9.7998 41.7001 9.8998 33.4001C9.8998 31.2001 9.8998 29.5001 7.2998 28.3001C2.7998 26.2001 0.699805 21.8001 0.299805 17.0001C-0.100195 12.2001 0.0998047 7.40011 0.0998047 2.60011C0.0998047 1.20011 0.0998046 0.000108339 2.0998 0.100108C3.9998 0.100108 4.7998 0.600108 4.7998 2.60011C4.6998 7.30011 4.8998 11.9001 4.8998 16.6001C4.8998 19.8001 6.1998 22.3001 9.7998 24.7001Z" fill="#F2F2F2"/>
<path d="M50.7999 6.39975C48.6999 3.49975 46.1999 1.29975 42.2999 0.999752C36.1999 0.599752 31.4999 3.59975 29.1999 9.49975C26.4999 16.1998 28.0999 25.8998 33.6999 28.8998C38.7999 31.6998 38.9999 35.1998 38.6999 39.7998C38.5999 42.0998 38.6999 44.4998 38.6999 46.7998C38.6999 50.7998 38.5999 54.7998 38.6999 58.6998C38.6999 60.1998 37.8999 62.0998 40.6999 62.1998C43.5999 62.2998 42.8999 60.3998 42.8999 58.7998C42.8999 50.7998 42.8999 42.8998 42.8999 34.8998C42.8999 33.0998 42.9999 31.7998 45.1999 30.6998C45.8999 30.2998 46.5999 29.8998 47.2999 29.3998C54.6999 23.9998 56.1999 13.6998 50.7999 6.39975ZM47.0999 23.5998C43.3999 28.5998 37.6999 28.4998 34.3999 23.2998C32.0999 19.5998 31.7999 14.8998 33.5999 10.8998C35.0999 7.29975 37.6999 4.69975 41.9999 5.29975C45.9999 5.89975 49.0999 10.6998 49.0999 16.0998C49.3999 18.7998 48.6999 21.3998 47.0999 23.5998Z" fill="#F2F2F2"/>
<path d="M73.1998 58.1C73.2998 49.2 73.2998 40.2 73.2998 31.2C73.2998 22 72.9998 12.9 73.4998 3.79996C73.5998 -0.70004 71.0998 -0.20004 68.4998 0.49996C66.8998 0.89996 65.4998 1.99996 64.6998 3.49996C60.5998 11.6 57.8998 20 60.1998 29.3C60.7998 31.9 61.7998 34.9 64.0998 36C69.7998 38.8 69.3998 43.5 69.1998 48.4C68.9998 51.6 68.9998 54.7 69.1998 57.9C69.2998 59.5 67.6998 62.3 71.3998 62.2C74.4998 62.1 73.1998 59.5 73.1998 58.1ZM68.6998 34.7C61.5998 30 63.2998 15.4 68.6998 5.09996V34.7Z" fill="#F2F2F2"/>
</svg>
