<?xml version="1.0" encoding="utf-8"?>
<!-- Generator: Adobe Illustrator 24.2.3, SVG Export Plug-In . SVG Version: 6.00 Build 0)  -->
<svg version="1.1" id="Layer_1" xmlns="http://www.w3.org/2000/svg" xmlns:xlink="http://www.w3.org/1999/xlink" x="0px" y="0px"
	 viewBox="0 0 415.8 62.3" style="enable-background: new 0 0 415.8 62.3" xml:space="preserve">
<style type="text/css">
	.st0{fill:#ffffff;}
	.st1{fill:#ffffff;}
	.st2{fill:#ffffff;}
	.st3{fill:#ffffff;}
	.st4{fill:#ffffff;}
	.st5{fill:#ffffff;}
	.st6{fill:#ffffff;}
	.st7{fill:#FFFFFF;}
</style>
<g>
	<path class="st0" d="M 285.2 20.9 c -0.4 -2.3 -0.7 -4.3 -1.2 -6.2 c -2.2 -8.6 -11.1 -12.3 -18.8 -7.8 c -5.6 3.3 -6.2 9.3 -1.2 13.5 c 4.1 3.4 9.2 5.2 13.9 7.7 c 3.8 2 7.7 3.9 10.9 6.9 c 5.3 5 5.7 10.5 1.4 16.4 c -2.1 2.8 -5 5 -8.3 6.1 c -7.5 2.7 -15 2.2 -22.4 -0.7 c -3.9 -1.4 -6.5 -5.1 -6.3 -9.3 c 0 -4.1 2.5 -6.9 7.8 -8.8 c 0.3 3 -0.8 5.8 -0.1 8.8 c 1.3 5.3 4.9 8.9 10.1 9.5 c 6 0.7 11.8 -2 14.1 -6.4 c 2 -3.8 0.5 -6.7 -2.1 -9.4 c -3.5 -3.5 -8.1 -5.1 -12.5 -7 c -3.9 -1.8 -7.9 -3.4 -11.3 -6.1 c -8.7 -6.9 -7 -19.1 3.3 -23.1 c 7.3 -2.9 14.6 -2.5 21.9 0.3 c 3.4 1.3 6.1 3.8 6.4 7.6 S 288.6 18.9 285.2 20.9 z"/>
	<path class="st1" d="M 165.5 49.9 c 0.7 1.3 0.6 1.9 0 2.3 c -14.7 11.5 -43.8 10 -51.4 -14 c -5.3 -16.6 7.8 -34.1 25.5 -35.1 c 8 -0.4 15.9 0.6 23 4.8 c 2.5 1.5 4 3.3 3.6 6.4 s -2.6 4.5 -5.2 5.4 c -1.6 0.6 -2.8 0.9 -3.3 -1.9 c -1 -6.4 -5.1 -10.7 -11.4 -12.4 s -11.8 0.4 -16.3 5 C 118.7 22.2 120 43 132.7 53.2 c 6.7 5.4 18.6 5.2 28.2 -0.3 C 162.4 52 163.9 50.9 165.5 49.9 z"/>
	<path class="st2" d="M 332.3 58.5 h -8.4 c 4.1 -2.6 4.1 -5.9 4.1 -9.5 c -0.1 -12.5 -0.1 -25 0 -37.4 c 0 -3 -0.3 -5.6 -4.3 -7.3 c 7 -1.2 11.6 -0.8 15.7 5.1 c 8 11.4 17.1 22.1 25.7 33.1 c 2.4 -7 1.1 -35.1 -1.9 -38.3 c 2.7 -0.6 5.4 -0.6 8.1 0 c -3 1.9 -3.5 4.3 -3.5 7.3 c 0.1 14 0.1 28 0.1 41.9 v 4.8 l -1.3 0.7 L 330 11.6 c -1 4 -0.5 7.4 -0.6 10.8 c -0.1 9.5 0 19 0 28.5 C 329.4 53.8 329.7 56.5 332.3 58.5 z"/>
	<path class="st3" d="M 415.6 49.1 c 0.3 9.5 0.3 9.5 -7.9 9.5 h -28 c 3.9 -2.8 4.2 -5.9 4.1 -9.4 c -0.1 -12.3 -0.1 -24.6 0 -36.9 c 0 -3.1 -0.3 -5.9 -3.2 -8.5 h 26.5 c 8.7 0 8.7 0 8.6 9.6 c -2.2 -4.8 -4.6 -8.1 -9.6 -8 c -4.3 0.1 -8.7 0 -13 0.1 c -1.7 0.1 -1.2 1.7 -1.2 2.8 c -0.1 4.5 -0.1 9 0 13.5 c 0 1 -0.4 2.2 1.4 2.7 c 6.3 1.9 11.8 -0.9 14.6 -8.7 V 34 c -3.3 -7.3 -6.5 -8.9 -13.9 -8 c -1.9 0.2 -2.1 1 -2.1 2.5 c 0 8.7 0.1 17.3 0 26 c 0 2 0.8 2.5 2.7 2.5 c 4 -0.1 8 0.1 12 -0.1 C 410.8 56.8 412.6 55.2 415.6 49.1 z"/>
	<path class="st4" d="M 213.7 3.7 c 2 0 3.9 0 5.9 0 c 0.6 0 1.2 0.1 2.9 0.3 c -3.8 2 -4.4 4.8 -4.4 8 c 0.1 8.8 0.1 17.6 0 26.5 c 0 11.3 -9.2 20.5 -20.5 20.7 c -11.8 0.2 -21.3 -8.5 -21.6 -20.1 c -0.3 -9.3 -0.2 -18.6 -0.1 -28 c 0 -2.9 -0.6 -5.2 -4.5 -7 h 17.1 c -4.2 2 -4.5 5 -4.4 8.2 c 0.3 9.8 -0.7 19.7 0.5 29.4 s 6.1 15.2 13.2 15.5 c 8 0.3 15.9 -6 18.2 -14.3 c 1.1 -4.1 0.8 -8.3 0.8 -12.4 c 0 -6.3 -0.1 -12.6 0 -19 C 216.9 8.5 216.4 5.9 213.7 3.7 z"/>
	<path class="st5" d="M 230.4 3.9 H 246 c -4.3 2.4 -4 6.1 -4 9.8 c 0.1 12.3 0.1 24.6 0 36.9 c 0 3.2 0.4 5.8 4.9 7.8 h -16.4 c 2.9 -1.8 3.1 -4.4 3 -7.2 c 0 -13.3 0 -26.6 0 -39.9 C 233.5 8.4 233.3 5.7 230.4 3.9 z"/>
	<path class="st6" d="M 316.1 4 c -3.7 2.2 -4.2 4.5 -4.1 7.3 c 0.1 13.3 0.1 26.6 0 39.9 c 0 2.9 0.5 5.3 4.7 7 h -17.4 c 4.3 -1.8 4.3 -4.7 4.3 -7.7 c 0 -13 0 -26 0 -38.9 c 0 -2.9 -0.2 -5.6 -4.1 -7.6 L 316.1 4 z"/>
	<path class="st7" d="M 9.8 24.7 c 0 -7.8 0 -14.6 0 -21.4 c 0 -1.7 -0.2 -3.3 2.4 -3.2 s 1.9 1.8 1.9 3.2 c 0 6.8 0 13.6 0 20.9 c 3.9 -1.6 4.9 -4.5 4.9 -7.9 c 0.1 -4.5 0.1 -9 0 -13.5 C 19 1 19.3 0 21.4 0.1 S 24 1 23.9 2.8 c -0.3 5.3 0.4 10.6 -0.6 15.9 c -0.8 4.4 -2.9 7.8 -6.8 9.8 c -2 1 -2.4 2.1 -2.4 4.1 c 0.1 8.6 0.1 17.3 0 26 c 0 1.4 1 3.5 -1.9 3.6 c -3.1 0.1 -2.3 -2.1 -2.3 -3.8 c -0.1 -8.3 -0.1 -16.7 0 -25 c 0 -2.2 0 -3.9 -2.6 -5.1 c -4.5 -2.1 -6.6 -6.5 -7 -11.3 S 0.1 7.4 0.1 2.6 c 0 -1.4 0 -2.6 2 -2.5 C 4 0.1 4.8 0.6 4.8 2.6 c -0.1 4.7 0.1 9.3 0.1 14 C 4.9 19.8 6.2 22.3 9.8 24.7 z"/>
	<path class="st7" d="M 50.8 6.4 c -2.1 -2.9 -4.6 -5.1 -8.5 -5.4 c -6.1 -0.4 -10.8 2.6 -13.1 8.5 c -2.7 6.7 -1.1 16.4 4.5 19.4 c 5.1 2.8 5.3 6.3 5 10.9 c -0.1 2.3 0 4.7 0 7 c 0 4 -0.1 8 0 11.9 c 0 1.5 -0.8 3.4 2 3.5 c 2.9 0.1 2.2 -1.8 2.2 -3.4 c 0 -8 0 -15.9 0 -23.9 c 0 -1.8 0.1 -3.1 2.3 -4.2 c 0.7 -0.4 1.4 -0.8 2.1 -1.3 C 54.7 24 56.2 13.7 50.8 6.4 z M 47.1 23.6 c -3.7 5 -9.4 4.9 -12.7 -0.3 c -2.3 -3.7 -2.6 -8.4 -0.8 -12.4 c 1.5 -3.6 4.1 -6.2 8.4 -5.6 c 4 0.6 7.1 5.4 7.1 10.8 C 49.4 18.8 48.7 21.4 47.1 23.6 z"/>
	<path class="st7" d="M 73.2 58.1 c 0.1 -8.9 0.1 -17.9 0.1 -26.9 c 0 -9.2 -0.3 -18.3 0.2 -27.4 c 0.1 -4.5 -2.4 -4 -5 -3.3 c -1.6 0.4 -3 1.5 -3.8 3 c -4.1 8.1 -6.8 16.5 -4.5 25.8 c 0.6 2.6 1.6 5.6 3.9 6.7 c 5.7 2.8 5.3 7.5 5.1 12.4 c -0.2 3.2 -0.2 6.3 0 9.5 c 0.1 1.6 -1.5 4.4 2.2 4.3 C 74.5 62.1 73.2 59.5 73.2 58.1 z M 68.7 34.7 c -7.1 -4.7 -5.4 -19.3 0 -29.6 V 34.7 z"/>
</g>
</svg>
