<?xml version="1.0" encoding="utf-8"?>
<!-- Generator: Adobe Illustrator 24.2.3, SVG Export Plug-In . SVG Version: 6.00 Build 0)  -->
<svg version="1.1" id="Layer_1" xmlns="http://www.w3.org/2000/svg" xmlns:xlink="http://www.w3.org/1999/xlink" x="0px" y="0px"
	 viewBox="0 0 415.8 62.3" style="enable-background:new 0 0 415.8 62.3;" xml:space="preserve">
<style type="text/css">
	.st0{fill:#1B1010;}
	.st1{fill:#030303;}
	.st2{fill:#281111;}
	.st3{fill:#2E1413;}
	.st4{fill:#0C0909;}
	.st5{fill:#181313;}
	.st6{fill:#251616;}
	.st7{fill:#FFFFFF;}
</style>
<g>
	<path class="st0" d="M285.2,20.9c-0.4-2.3-0.7-4.3-1.2-6.2c-2.2-8.6-11.1-12.3-18.8-7.8c-5.6,3.3-6.2,9.3-1.2,13.5
		c4.1,3.4,9.2,5.2,13.9,7.7c3.8,2,7.7,3.9,10.9,6.9c5.3,5,5.7,10.5,1.4,16.4c-2.1,2.8-5,5-8.3,6.1c-7.5,2.7-15,2.2-22.4-0.7
		c-3.9-1.4-6.5-5.1-6.3-9.3c0-4.1,2.5-6.9,7.8-8.8c0.3,3-0.8,5.8-0.1,8.8c1.3,5.3,4.9,8.9,10.1,9.5c6,0.7,11.8-2,14.1-6.4
		c2-3.8,0.5-6.7-2.1-9.4c-3.5-3.5-8.1-5.1-12.5-7c-3.9-1.8-7.9-3.4-11.3-6.1c-8.7-6.9-7-19.1,3.3-23.1c7.3-2.9,14.6-2.5,21.9,0.3
		c3.4,1.3,6.1,3.8,6.4,7.6S288.6,18.9,285.2,20.9z"/>
	<path class="st1" d="M165.5,49.9c0.7,1.3,0.6,1.9,0,2.3c-14.7,11.5-43.8,10-51.4-14c-5.3-16.6,7.8-34.1,25.5-35.1
		c8-0.4,15.9,0.6,23,4.8c2.5,1.5,4,3.3,3.6,6.4s-2.6,4.5-5.2,5.4c-1.6,0.6-2.8,0.9-3.3-1.9c-1-6.4-5.1-10.7-11.4-12.4
		s-11.8,0.4-16.3,5C118.7,22.2,120,43,132.7,53.2c6.7,5.4,18.6,5.2,28.2-0.3C162.4,52,163.9,50.9,165.5,49.9z"/>
	<path class="st2" d="M332.3,58.5h-8.4c4.1-2.6,4.1-5.9,4.1-9.5c-0.1-12.5-0.1-25,0-37.4c0-3-0.3-5.6-4.3-7.3
		c7-1.2,11.6-0.8,15.7,5.1c8,11.4,17.1,22.1,25.7,33.1c2.4-7,1.1-35.1-1.9-38.3c2.7-0.6,5.4-0.6,8.1,0c-3,1.9-3.5,4.3-3.5,7.3
		c0.1,14,0.1,28,0.1,41.9v4.8l-1.3,0.7L330,11.6c-1,4-0.5,7.4-0.6,10.8c-0.1,9.5,0,19,0,28.5C329.4,53.8,329.7,56.5,332.3,58.5z"/>
	<path class="st3" d="M415.6,49.1c0.3,9.5,0.3,9.5-7.9,9.5h-28c3.9-2.8,4.2-5.9,4.1-9.4c-0.1-12.3-0.1-24.6,0-36.9
		c0-3.1-0.3-5.9-3.2-8.5h26.5c8.7,0,8.7,0,8.6,9.6c-2.2-4.8-4.6-8.1-9.6-8c-4.3,0.1-8.7,0-13,0.1c-1.7,0.1-1.2,1.7-1.2,2.8
		c-0.1,4.5-0.1,9,0,13.5c0,1-0.4,2.2,1.4,2.7c6.3,1.9,11.8-0.9,14.6-8.7V34c-3.3-7.3-6.5-8.9-13.9-8c-1.9,0.2-2.1,1-2.1,2.5
		c0,8.7,0.1,17.3,0,26c0,2,0.8,2.5,2.7,2.5c4-0.1,8,0.1,12-0.1C410.8,56.8,412.6,55.2,415.6,49.1z"/>
	<path class="st4" d="M213.7,3.7c2,0,3.9,0,5.9,0c0.6,0,1.2,0.1,2.9,0.3c-3.8,2-4.4,4.8-4.4,8c0.1,8.8,0.1,17.6,0,26.5
		c0,11.3-9.2,20.5-20.5,20.7c-11.8,0.2-21.3-8.5-21.6-20.1c-0.3-9.3-0.2-18.6-0.1-28c0-2.9-0.6-5.2-4.5-7h17.1c-4.2,2-4.5,5-4.4,8.2
		c0.3,9.8-0.7,19.7,0.5,29.4s6.1,15.2,13.2,15.5c8,0.3,15.9-6,18.2-14.3c1.1-4.1,0.8-8.3,0.8-12.4c0-6.3-0.1-12.6,0-19
		C216.9,8.5,216.4,5.9,213.7,3.7z"/>
	<path class="st5" d="M230.4,3.9H246c-4.3,2.4-4,6.1-4,9.8c0.1,12.3,0.1,24.6,0,36.9c0,3.2,0.4,5.8,4.9,7.8h-16.4
		c2.9-1.8,3.1-4.4,3-7.2c0-13.3,0-26.6,0-39.9C233.5,8.4,233.3,5.7,230.4,3.9z"/>
	<path class="st6" d="M316.1,4c-3.7,2.2-4.2,4.5-4.1,7.3c0.1,13.3,0.1,26.6,0,39.9c0,2.9,0.5,5.3,4.7,7h-17.4
		c4.3-1.8,4.3-4.7,4.3-7.7c0-13,0-26,0-38.9c0-2.9-0.2-5.6-4.1-7.6L316.1,4z"/>
	<path class="st7" d="M9.8,24.7c0-7.8,0-14.6,0-21.4c0-1.7-0.2-3.3,2.4-3.2s1.9,1.8,1.9,3.2c0,6.8,0,13.6,0,20.9
		c3.9-1.6,4.9-4.5,4.9-7.9c0.1-4.5,0.1-9,0-13.5C19,1,19.3,0,21.4,0.1S24,1,23.9,2.8c-0.3,5.3,0.4,10.6-0.6,15.9
		c-0.8,4.4-2.9,7.8-6.8,9.8c-2,1-2.4,2.1-2.4,4.1c0.1,8.6,0.1,17.3,0,26c0,1.4,1,3.5-1.9,3.6c-3.1,0.1-2.3-2.1-2.3-3.8
		c-0.1-8.3-0.1-16.7,0-25c0-2.2,0-3.9-2.6-5.1c-4.5-2.1-6.6-6.5-7-11.3S0.1,7.4,0.1,2.6c0-1.4,0-2.6,2-2.5C4,0.1,4.8,0.6,4.8,2.6
		c-0.1,4.7,0.1,9.3,0.1,14C4.9,19.8,6.2,22.3,9.8,24.7z"/>
	<path class="st7" d="M50.8,6.4c-2.1-2.9-4.6-5.1-8.5-5.4c-6.1-0.4-10.8,2.6-13.1,8.5c-2.7,6.7-1.1,16.4,4.5,19.4
		c5.1,2.8,5.3,6.3,5,10.9c-0.1,2.3,0,4.7,0,7c0,4-0.1,8,0,11.9c0,1.5-0.8,3.4,2,3.5c2.9,0.1,2.2-1.8,2.2-3.4c0-8,0-15.9,0-23.9
		c0-1.8,0.1-3.1,2.3-4.2c0.7-0.4,1.4-0.8,2.1-1.3C54.7,24,56.2,13.7,50.8,6.4z M47.1,23.6c-3.7,5-9.4,4.9-12.7-0.3
		c-2.3-3.7-2.6-8.4-0.8-12.4c1.5-3.6,4.1-6.2,8.4-5.6c4,0.6,7.1,5.4,7.1,10.8C49.4,18.8,48.7,21.4,47.1,23.6z"/>
	<path class="st7" d="M73.2,58.1c0.1-8.9,0.1-17.9,0.1-26.9c0-9.2-0.3-18.3,0.2-27.4c0.1-4.5-2.4-4-5-3.3c-1.6,0.4-3,1.5-3.8,3
		c-4.1,8.1-6.8,16.5-4.5,25.8c0.6,2.6,1.6,5.6,3.9,6.7c5.7,2.8,5.3,7.5,5.1,12.4c-0.2,3.2-0.2,6.3,0,9.5c0.1,1.6-1.5,4.4,2.2,4.3
		C74.5,62.1,73.2,59.5,73.2,58.1z M68.7,34.7c-7.1-4.7-5.4-19.3,0-29.6V34.7z"/>
</g>
</svg>
